<svg width="24" height="24" viewBox="0 0 24 24" fill="none" xmlns="http://www.w3.org/2000/svg">
<g clip-path="url(#clip0_1_839)">
<path fill-rule="evenodd" clip-rule="evenodd" d="M0.25 8C0.25 5.92893 1.92893 4.25 4 4.25H20C20.4142 4.25 20.75 4.58579 20.75 5C20.75 5.41421 20.4142 5.75 20 5.75H4C2.75736 5.75 1.75 6.75736 1.75 8V16C1.75 16.4142 1.41421 16.75 1 16.75C0.585786 16.75 0.25 16.4142 0.25 16V8ZM3.25 10C3.25 8.48122 4.48122 7.25 6 7.25H21C22.5188 7.25 23.75 8.48122 23.75 10V17C23.75 18.5188 22.5188 19.75 21 19.75H6C4.48122 19.75 3.25 18.5188 3.25 17V10ZM6 8.75C5.30964 8.75 4.75 9.30964 4.75 10V17C4.75 17.6904 5.30964 18.25 6 18.25H21C21.6904 18.25 22.25 17.6904 22.25 17V10C22.25 9.30964 21.6904 8.75 21 8.75H6ZM11.75 13.5C11.75 12.5335 12.5335 11.75 13.5 11.75C14.4665 11.75 15.25 12.5335 15.25 13.5C15.25 14.4665 14.4665 15.25 13.5 15.25C12.5335 15.25 11.75 14.4665 11.75 13.5ZM13.5 10.25C11.7051 10.25 10.25 11.7051 10.25 13.5C10.25 15.2949 11.7051 16.75 13.5 16.75C15.2949 16.75 16.75 15.2949 16.75 13.5C16.75 11.7051 15.2949 10.25 13.5 10.25Z" fill="#222222"/>
</g>
<defs>
<clipPath id="clip0_1_839">
<rect width="24" height="24" fill="white"/>
</clipPath>
</defs>
</svg>
