<svg width="24" height="28" viewBox="0 0 24 28" fill="none" xmlns="http://www.w3.org/2000/svg">
<g clip-path="url(#clip0_1_849)">
<path d="M15.1875 4.75H2.8125C1.67297 4.75 0.75 5.645 0.75 6.75V20.75C0.75 21.855 1.67297 22.75 2.8125 22.75H15.1875C16.327 22.75 17.25 21.855 17.25 20.75V6.75C17.25 5.645 16.327 4.75 15.1875 4.75Z" stroke="#222222" stroke-width="1.5" stroke-linecap="round" stroke-linejoin="round"/>
<path d="M6.75 25.25C6.75 26.355 7.67297 27.25 8.8125 27.25H21.1875C22.327 27.25 23.25 26.355 23.25 25.25V11.25C23.25 10.145 22.327 9.25 21.1875 9.25H19.875" stroke="#222222" stroke-width="1.5" stroke-linecap="square" stroke-linejoin="round"/>
<path d="M4.5 17.5H10.5" stroke="#222222" stroke-width="1.5" stroke-linejoin="bevel"/>
<path d="M4.5 10H13.5" stroke="#222222" stroke-width="1.5" stroke-linejoin="bevel"/>
<path d="M4.5 13.75H13.5" stroke="#222222" stroke-width="1.5" stroke-linejoin="bevel"/>
</g>
<defs>
<clipPath id="clip0_1_849">
<rect width="24" height="24" fill="white" transform="translate(0 4)"/>
</clipPath>
</defs>
</svg>
