<svg width="115" height="36" viewBox="0 0 115 36" fill="none" xmlns="http://www.w3.org/2000/svg">
<rect x="0.5" y="0.5" width="113" height="35" rx="8.5" stroke="#222222"/>
<path d="M36.8856 10.862H37.642C38.4201 10.862 38.8688 11.2131 38.8688 11.8066V11.8138C38.8688 12.3639 38.3947 12.7222 37.6673 12.7222C36.929 12.7222 36.455 12.4255 36.3898 11.9043L36.3862 11.8754H35.742L35.7456 11.9224C35.8108 12.7584 36.549 13.323 37.6746 13.323C38.7349 13.323 39.5347 12.6752 39.5347 11.8319V11.8247C39.5347 11.119 39.1149 10.6196 38.4201 10.5291V10.5001C38.9919 10.359 39.3827 9.87042 39.3827 9.29137V9.28414C39.3827 8.48795 38.6879 7.927 37.6854 7.927C36.6359 7.927 35.9483 8.44452 35.8868 9.30223L35.8831 9.3529H36.5273L36.5346 9.29861C36.5997 8.81366 37.005 8.52776 37.6601 8.52776C38.3296 8.52776 38.7168 8.83538 38.7168 9.34204V9.34928C38.7168 9.89213 38.2789 10.2757 37.613 10.2757H36.8856V10.862Z" fill="#222222"/>
<path d="M41.4997 13.3085C42.0028 13.3085 42.4552 13.0371 42.6759 12.6245H42.6904V13.2361H43.3201V10.634C43.3201 9.88128 42.7628 9.39995 41.8725 9.39995C40.9858 9.39995 40.4466 9.89937 40.3923 10.5182L40.3887 10.558H40.9967L41.0039 10.5255C41.0763 10.1889 41.3803 9.95728 41.8653 9.95728C42.39 9.95728 42.6904 10.2359 42.6904 10.6956V11.0104L41.6119 11.0719C40.747 11.1226 40.2475 11.5243 40.2475 12.1649V12.1721C40.2475 12.8561 40.7506 13.3085 41.4997 13.3085ZM40.8917 12.1721V12.1649C40.8917 11.8138 41.1813 11.5895 41.6843 11.5605L42.6904 11.499V11.8066C42.6904 12.3531 42.2344 12.762 41.6409 12.762C41.1885 12.762 40.8917 12.534 40.8917 12.1721Z" fill="#222222"/>
<path d="M46.758 9.99347V9.47233H44.3369V13.2361H44.9666V9.99347H46.758Z" fill="#222222"/>
<path d="M47.5939 14.5028H48.2236V12.6064H48.2381C48.4733 13.0407 48.9112 13.3085 49.4432 13.3085C50.3878 13.3085 51.032 12.5449 51.032 11.3578V11.3542C51.032 10.1672 50.395 9.39995 49.4323 9.39995C48.8931 9.39995 48.4733 9.67137 48.2381 10.1093H48.2236V9.47233H47.5939V14.5028ZM49.3093 12.7512C48.676 12.7512 48.22 12.1975 48.22 11.3578V11.3542C48.22 10.511 48.6723 9.95728 49.3093 9.95728C49.9752 9.95728 50.3878 10.4893 50.3878 11.3542V11.3578C50.3878 12.2155 49.9752 12.7512 49.3093 12.7512Z" fill="#222222"/>
<path d="M52.1428 14.5028C52.8232 14.5028 53.1526 14.1915 53.4204 13.4713L54.8897 9.47233H54.2274L53.1851 12.6064H53.1707L52.132 9.47233H51.4589L52.8558 13.2397L52.7798 13.4533C52.6278 13.8803 52.407 13.9816 52.0089 13.9816C51.9329 13.9816 51.8606 13.9708 51.8063 13.9599V14.4738C51.8859 14.4883 52.0198 14.5028 52.1428 14.5028Z" fill="#222222"/>
<path d="M56.8583 13.3085C57.7377 13.3085 58.3276 12.838 58.3276 12.1395V12.1323C58.3276 11.698 58.0598 11.3976 57.5749 11.2927V11.2637C57.9585 11.1769 58.2227 10.8403 58.2227 10.4386V10.4314C58.2227 9.79442 57.7196 9.39995 56.8981 9.39995C56.1164 9.39995 55.5699 9.7908 55.4831 10.3988L55.4794 10.4241H56.0911L56.0947 10.406C56.1526 10.1129 56.4674 9.92109 56.8981 9.92109C57.3432 9.92109 57.6074 10.131 57.6074 10.482V10.4893C57.6074 10.862 57.3577 11.0502 56.8583 11.0502H56.2937V11.5714H56.8583C57.4337 11.5714 57.7088 11.7596 57.7088 12.1613V12.1685C57.7088 12.5485 57.3794 12.7874 56.8583 12.7874C56.4095 12.7874 56.1092 12.61 56.0187 12.2952L56.0078 12.259H55.3709L55.3745 12.2879C55.4505 12.9032 56.0404 13.3085 56.8583 13.3085Z" fill="#222222"/>
<path d="M59.196 13.2361H59.8185L61.6932 10.4386H61.7221V13.2361H62.3518V9.47233H61.7294L59.8547 12.2698H59.8257V9.47233H59.196V13.2361Z" fill="#222222"/>
<path d="M65.0866 13.2361H66.7079C67.5078 13.2361 67.9999 12.8199 67.9999 12.1576V12.1504C67.9999 11.6908 67.6887 11.3578 67.2146 11.2927V11.2637C67.562 11.1914 67.8335 10.8367 67.8335 10.4495V10.4422C67.8335 9.84509 67.4028 9.47233 66.6971 9.47233H65.0866V13.2361ZM65.7163 11.0466V9.99347H66.603C66.9975 9.99347 67.2074 10.1708 67.2074 10.5074V10.5146C67.2074 10.8765 66.983 11.0466 66.5089 11.0466H65.7163ZM65.7163 12.715V11.5677H66.5415C67.0916 11.5677 67.3558 11.7487 67.3558 12.1359V12.1432C67.3558 12.5195 67.1097 12.715 66.6537 12.715H65.7163Z" fill="#222222"/>
<path fill-rule="evenodd" clip-rule="evenodd" d="M26.3591 7.41162C26.4438 8.5181 26.0939 9.61404 25.3836 10.4667C25.0435 10.8897 24.6119 11.23 24.1212 11.462C23.6304 11.6941 23.0935 11.8117 22.5507 11.8061C22.5161 11.274 22.5867 10.7403 22.7585 10.2355C22.9302 9.73071 23.1998 9.26471 23.5517 8.86415C24.2716 8.04421 25.274 7.52559 26.3591 7.41162ZM28.3385 15.4652C27.9779 16.1005 27.7839 16.8168 27.7745 17.5473C27.7753 18.369 28.0181 19.1723 28.4724 19.857C28.9268 20.5417 29.5726 21.0775 30.3294 21.3976C30.0319 22.3642 29.5834 23.2777 29.0005 24.1042C28.2177 25.2752 27.397 26.4191 26.0943 26.4403C25.4748 26.4546 25.0566 26.2764 24.6208 26.0908C24.1663 25.8972 23.6926 25.6954 22.9514 25.6954C22.1653 25.6954 21.6704 25.9037 21.1932 26.1045C20.7807 26.2781 20.3814 26.4462 19.8186 26.4695C18.578 26.5154 17.6299 25.2197 16.8187 24.0598C15.1973 21.6909 13.9347 17.3839 15.6273 14.4533C16.0181 13.7511 16.5841 13.1621 17.2702 12.7437C17.9562 12.3253 18.739 12.0917 19.5421 12.0658C20.2457 12.0513 20.9209 12.3225 21.5128 12.5602C21.9655 12.7421 22.3695 12.9044 22.7004 12.9044C22.9912 12.9044 23.3839 12.7485 23.8416 12.5668C24.5626 12.2807 25.4448 11.9305 26.3438 12.0249C27.0328 12.0465 27.7073 12.2284 28.3136 12.5562C28.92 12.884 29.4416 13.3487 29.837 13.9134C29.2146 14.296 28.6991 14.8298 28.3385 15.4652Z" fill="#222222"/>
<path d="M35.6588 25.9417H37.3598L38.3224 23.1189H42.3468L43.3022 25.9417H45.0031L41.2104 15.4972H39.4588L35.6588 25.9417ZM40.3201 17.2271H40.3491L41.9053 21.816H38.7567L40.3201 17.2271Z" fill="#222222"/>
<path d="M45.973 28.475H47.5365V24.6606H47.5726C48.0214 25.5436 48.8972 26.0937 49.9757 26.0937C51.8865 26.0937 53.1387 24.5665 53.1387 22.1417V22.1345C53.1387 19.7025 51.8938 18.1825 49.954 18.1825C48.8683 18.1825 48.0286 18.7326 47.5726 19.6374H47.5365V18.3273H45.973V28.475ZM49.5486 24.7474C48.3688 24.7474 47.5292 23.7196 47.5292 22.1417V22.1345C47.5292 20.5494 48.3616 19.5216 49.5486 19.5216C50.7719 19.5216 51.5463 20.5132 51.5463 22.1345V22.1417C51.5463 23.7486 50.7791 24.7474 49.5486 24.7474Z" fill="#222222"/>
<path d="M54.3547 28.475H55.9181V24.6606H55.9543C56.4031 25.5436 57.2789 26.0937 58.3573 26.0937C60.2682 26.0937 61.5204 24.5665 61.5204 22.1417V22.1345C61.5204 19.7025 60.2754 18.1825 58.3356 18.1825C57.2499 18.1825 56.4103 18.7326 55.9543 19.6374H55.9181V18.3273H54.3547V28.475ZM57.9303 24.7474C56.7505 24.7474 55.9109 23.7196 55.9109 22.1417V22.1345C55.9109 20.5494 56.7433 19.5216 57.9303 19.5216C59.1535 19.5216 59.928 20.5132 59.928 22.1345V22.1417C59.928 23.7486 59.1608 24.7474 57.9303 24.7474Z" fill="#222222"/>
<path d="M69.4967 26.1154C71.9721 26.1154 73.4776 24.9067 73.4776 23.0031V22.9958C73.4776 21.3817 72.5512 20.5059 70.3942 20.0499L69.2506 19.8111C67.9478 19.5288 67.3542 19.0511 67.3542 18.2694V18.2621C67.3542 17.3501 68.1794 16.7349 69.475 16.7277C70.7127 16.7277 71.5523 17.314 71.6971 18.2838L71.7043 18.3852H73.2822L73.275 18.2621C73.1664 16.5105 71.6754 15.3235 69.4967 15.3235C67.2891 15.3235 65.7184 16.5467 65.7112 18.3273V18.3345C65.7112 19.8835 66.7028 20.8244 68.7512 21.2587L69.8876 21.4975C71.27 21.8015 71.8418 22.2575 71.8418 23.0972V23.1044C71.8418 24.0815 70.9588 24.7112 69.5618 24.7112C68.1649 24.7112 67.2022 24.1105 67.0575 23.1478L67.043 23.0537H65.4651L65.4723 23.1623C65.6026 25.0008 67.1516 26.1154 69.4967 26.1154Z" fill="#222222"/>
<path d="M77.4224 26.0937C77.7408 26.0937 78.0376 26.0575 78.2185 26.0286V24.8198C78.1027 24.8343 77.9652 24.8488 77.7987 24.8488C77.1401 24.8488 76.7927 24.6171 76.7927 23.8427V19.5722H78.2185V18.3273H76.7927V16.3441H75.193V18.3273H74.1001V19.5722H75.193V23.9368C75.193 25.4568 75.9168 26.0937 77.4224 26.0937Z" fill="#222222"/>
<path d="M82.5976 26.0937C84.7762 26.0937 86.2094 24.5882 86.2094 22.1345V22.12C86.2094 19.6808 84.7617 18.1825 82.5903 18.1825C80.4262 18.1825 78.9858 19.688 78.9858 22.12V22.1345C78.9858 24.581 80.4117 26.0937 82.5976 26.0937ZM82.6048 24.7836C81.3816 24.7836 80.5854 23.821 80.5854 22.1345V22.12C80.5854 20.4553 81.3888 19.4926 82.5903 19.4926C83.8136 19.4926 84.6097 20.4553 84.6097 22.12V22.1345C84.6097 23.8137 83.828 24.7836 82.6048 24.7836Z" fill="#222222"/>
<path d="M87.4181 25.9417H88.9815V21.4035C88.9815 20.2671 89.604 19.6084 90.6101 19.6084C90.9141 19.6084 91.1891 19.6446 91.3122 19.6953V18.2404C91.1891 18.2187 90.9937 18.1825 90.7693 18.1825C89.9008 18.1825 89.2638 18.7398 89.0177 19.6301H88.9815V18.3273H87.4181V25.9417Z" fill="#222222"/>
<path d="M95.199 26.0937C97.0447 26.0937 98.2173 24.9935 98.4634 23.7848L98.4779 23.7052H96.9941L96.9723 23.7631C96.7769 24.3349 96.1617 24.8126 95.2352 24.8126C93.9903 24.8126 93.2013 23.973 93.1724 22.5326H98.5647V22.0042C98.5647 19.717 97.2546 18.1825 95.1194 18.1825C92.9842 18.1825 91.6089 19.7749 91.6089 22.1562V22.1634C91.6089 24.5665 92.9625 26.0937 95.199 26.0937ZM95.1266 19.4637C96.1472 19.4637 96.8855 20.1078 97.0158 21.4252H93.1941C93.3316 20.1513 94.1133 19.4637 95.1266 19.4637Z" fill="#222222"/>
</svg>
