<svg width="115" height="36" viewBox="0 0 115 36" fill="none" xmlns="http://www.w3.org/2000/svg">
<g clip-path="url(#clip0_121_558)">
<rect x="0.852905" y="0.5" width="113" height="35" rx="8.5" stroke="#222222"/>
<path d="M40.6466 14.5271H39.9554V13.2351H36.1735V14.5307H35.4787L35.475 12.6669H35.9057C36.1325 12.4112 36.3122 12.0686 36.4449 11.6391C36.58 11.2073 36.6645 10.7344 36.6983 10.2205L36.8141 7.96582H39.9662V12.6669H40.6539L40.6466 14.5271ZM36.6983 12.6669H39.2678V8.53763H37.4836L37.4076 10.0866C37.3762 10.6922 37.2954 11.2085 37.1651 11.6355C37.0372 12.0626 36.8816 12.4064 36.6983 12.6669Z" fill="#222222"/>
<path d="M41.345 11.241C41.345 10.8574 41.4197 10.5124 41.5693 10.206C41.7213 9.89959 41.9312 9.66314 42.199 9.49667C42.4693 9.33019 42.7769 9.24696 43.1219 9.24696C43.6551 9.24696 44.0858 9.43153 44.4139 9.80067C44.7444 10.1698 44.9097 10.6608 44.9097 11.2736V11.3207C44.9097 11.7019 44.8361 12.0445 44.6889 12.3485C44.5442 12.65 44.3355 12.8853 44.0628 13.0542C43.7926 13.2231 43.4814 13.3075 43.1291 13.3075C42.5983 13.3075 42.1677 13.1229 41.8371 12.7538C41.509 12.3847 41.345 11.8961 41.345 11.2881V11.241ZM42.0181 11.3207C42.0181 11.7549 42.1182 12.1036 42.3185 12.3666C42.5211 12.6295 42.7914 12.761 43.1291 12.761C43.4693 12.761 43.7395 12.6283 43.9398 12.3629C44.14 12.0951 44.2402 11.7212 44.2402 11.241C44.2402 10.8116 44.1376 10.4642 43.9326 10.1988C43.7299 9.93095 43.4597 9.79705 43.1219 9.79705C42.7914 9.79705 42.5248 9.92854 42.3221 10.1915C42.1194 10.4545 42.0181 10.8309 42.0181 11.3207Z" fill="#222222"/>
<path d="M47.4682 12.761C47.7071 12.761 47.9157 12.6886 48.0943 12.5439C48.2728 12.3991 48.3717 12.2182 48.391 12.001H49.0244C49.0123 12.2254 48.9351 12.4389 48.7928 12.6416C48.6504 12.8443 48.4598 13.0059 48.221 13.1266C47.9845 13.2472 47.7336 13.3075 47.4682 13.3075C46.935 13.3075 46.5104 13.1302 46.1943 12.7755C45.8807 12.4184 45.7238 11.9311 45.7238 11.3134V11.2012C45.7238 10.82 45.7938 10.481 45.9337 10.1843C46.0737 9.88752 46.2739 9.65711 46.5345 9.49305C46.7975 9.32899 47.1075 9.24696 47.4646 9.24696C47.9037 9.24696 48.268 9.37845 48.5575 9.64143C48.8495 9.90441 49.0051 10.2458 49.0244 10.6656H48.391C48.3717 10.4123 48.2752 10.2048 48.1015 10.0431C47.9302 9.87908 47.7179 9.79705 47.4646 9.79705C47.1244 9.79705 46.8602 9.92009 46.672 10.1662C46.4862 10.4099 46.3933 10.7633 46.3933 11.2266V11.3532C46.3933 11.8044 46.4862 12.1518 46.672 12.3955C46.8578 12.6392 47.1232 12.761 47.4682 12.761Z" fill="#222222"/>
<path d="M52.8351 9.86219H51.5214V13.2351H50.8518V9.86219H49.5635V9.31934H52.8351V9.86219Z" fill="#222222"/>
<path d="M54.9593 12.2544L55.8713 9.31934H56.5878L55.0136 13.8395C54.7699 14.4909 54.3827 14.8166 53.8519 14.8166L53.7252 14.8058L53.4755 14.7587V14.2159L53.6564 14.2304C53.8832 14.2304 54.0594 14.1845 54.1848 14.0928C54.3127 14.0011 54.4176 13.8335 54.4997 13.5898L54.6481 13.1917L53.2511 9.31934H53.9822L54.9593 12.2544Z" fill="#222222"/>
<path d="M60.5397 13.2351H59.8702V9.87305H58.0679V13.2351H57.3947V9.31934H60.5397V13.2351Z" fill="#222222"/>
<path d="M64.962 13.2351H64.2925V11.5631H62.4938V13.2351H61.8207V9.31934H62.4938V11.0167H64.2925V9.31934H64.962V13.2351Z" fill="#222222"/>
<path d="M66.0114 11.241C66.0114 10.8574 66.0861 10.5124 66.2357 10.206C66.3877 9.89959 66.5976 9.66314 66.8654 9.49667C67.1357 9.33019 67.4433 9.24696 67.7883 9.24696C68.3215 9.24696 68.7522 9.43153 69.0803 9.80067C69.4108 10.1698 69.5761 10.6608 69.5761 11.2736V11.3207C69.5761 11.7019 69.5025 12.0445 69.3553 12.3485C69.2106 12.65 69.0019 12.8853 68.7292 13.0542C68.459 13.2231 68.1478 13.3075 67.7955 13.3075C67.2647 13.3075 66.8341 13.1229 66.5035 12.7538C66.1754 12.3847 66.0114 11.8961 66.0114 11.2881V11.241ZM66.6845 11.3207C66.6845 11.7549 66.7846 12.1036 66.9849 12.3666C67.1875 12.6295 67.4578 12.761 67.7955 12.761C68.1357 12.761 68.4059 12.6283 68.6062 12.3629C68.8064 12.0951 68.9066 11.7212 68.9066 11.241C68.9066 10.8116 68.804 10.4642 68.599 10.1988C68.3963 9.93095 68.1261 9.79705 67.7883 9.79705C67.4578 9.79705 67.1912 9.92854 66.9885 10.1915C66.7858 10.4545 66.6845 10.8309 66.6845 11.3207Z" fill="#222222"/>
<path d="M72.6122 13.2351V9.31934H74.1394C74.6605 9.31934 75.0598 9.41102 75.3373 9.59438C75.6172 9.77533 75.7571 10.0419 75.7571 10.3942C75.7571 10.5751 75.7028 10.7392 75.5942 10.8864C75.4857 11.0311 75.3252 11.1421 75.1129 11.2193C75.3494 11.2748 75.5388 11.3834 75.6811 11.545C75.8259 11.7067 75.8982 11.8997 75.8982 12.1241C75.8982 12.4836 75.7655 12.7586 75.5001 12.9492C75.2372 13.1398 74.8644 13.2351 74.3819 13.2351H72.6122ZM73.2817 11.5161V12.6959H74.3891C74.669 12.6959 74.8777 12.644 75.0152 12.5403C75.1551 12.4365 75.2251 12.2906 75.2251 12.1024C75.2251 11.7115 74.938 11.5161 74.3638 11.5161H73.2817ZM73.2817 10.9805H74.1466C74.7739 10.9805 75.0876 10.7971 75.0876 10.4304C75.0876 10.0636 74.7908 9.87425 74.1973 9.86219H73.2817V10.9805Z" fill="#222222"/>
<path d="M56.4142 20.0924C54.5369 20.0924 53.0506 21.5021 53.0506 23.46C53.0506 25.3396 54.5369 26.8276 56.4142 26.8276C58.2916 26.8276 59.7778 25.4179 59.7778 23.46C59.7778 21.4238 58.2916 20.0924 56.4142 20.0924ZM56.4142 25.4179C55.3973 25.4179 54.5369 24.5564 54.5369 23.3817C54.5369 22.207 55.3973 21.3455 56.4142 21.3455C57.4311 21.3455 58.2916 22.1286 58.2916 23.3817C58.2916 24.5564 57.4311 25.4179 56.4142 25.4179ZM49.1395 20.0924C47.2622 20.0924 45.7759 21.5021 45.7759 23.46C45.7759 25.3396 47.2622 26.8276 49.1395 26.8276C51.0168 26.8276 52.5031 25.4179 52.5031 23.46C52.5031 21.4238 51.0168 20.0924 49.1395 20.0924ZM49.1395 25.4179C48.1226 25.4179 47.2622 24.5564 47.2622 23.3817C47.2622 22.207 48.1226 21.3455 49.1395 21.3455C50.1564 21.3455 51.0169 22.1286 51.0169 23.3817C51.0169 24.5564 50.1564 25.4179 49.1395 25.4179ZM40.4568 21.1105V22.5202H43.8204C43.7421 23.3034 43.4292 23.9299 43.0381 24.3215C42.5688 24.7914 41.7866 25.3396 40.4568 25.3396C38.3448 25.3396 36.7803 23.695 36.7803 21.5804C36.7803 19.4659 38.423 17.8213 40.4568 17.8213C41.5519 17.8213 42.4123 18.2912 43.0381 18.8394L44.055 17.8213C43.1946 17.0381 42.0995 16.4116 40.535 16.4116C37.719 16.4116 35.2941 18.7611 35.2941 21.5804C35.2941 24.3998 37.719 26.7493 40.535 26.7493C42.0995 26.7493 43.1946 26.2794 44.1332 25.2613C45.0719 24.3215 45.3848 22.9901 45.3848 21.972C45.3848 21.6588 45.3848 21.3455 45.3066 21.1105H40.4568ZM75.9699 22.207C75.657 21.4238 74.8748 20.0924 73.1539 20.0924C71.433 20.0924 70.025 21.4238 70.025 23.46C70.025 25.3396 71.433 26.8276 73.3103 26.8276C74.7966 26.8276 75.7352 25.8878 76.0481 25.3396L74.953 24.5564C74.5619 25.1046 74.0926 25.4962 73.3103 25.4962C72.5281 25.4962 72.0588 25.1829 71.6677 24.4781L76.1264 22.5985L75.9699 22.207ZM71.433 23.3034C71.433 22.0503 72.4499 21.3455 73.1539 21.3455C73.7015 21.3455 74.249 21.6588 74.4055 22.0503L71.433 23.3034ZM67.7565 26.5143H69.2428V16.7249H67.7565V26.5143ZM65.4098 20.7973C65.0187 20.4057 64.393 20.0141 63.6107 20.0141C61.968 20.0141 60.4036 21.5021 60.4036 23.3817C60.4036 25.2613 61.8898 26.6709 63.6107 26.6709C64.393 26.6709 65.0187 26.2794 65.3316 25.8878H65.4098V26.3577C65.4098 27.6107 64.7058 28.3156 63.6107 28.3156C62.7503 28.3156 62.1245 27.689 61.968 27.1408L60.7165 27.689C61.1076 28.5505 62.0463 29.6469 63.6889 29.6469C65.4098 29.6469 66.8179 28.6288 66.8179 26.201V20.2491H65.4098V20.7973ZM63.6889 25.4179C62.672 25.4179 61.8116 24.5564 61.8116 23.3817C61.8116 22.207 62.672 21.3455 63.6889 21.3455C64.7058 21.3455 65.4881 22.207 65.4881 23.3817C65.4881 24.5564 64.7058 25.4179 63.6889 25.4179ZM82.7753 16.7249H79.2553V26.5143H80.7415V22.8335H82.7753C84.418 22.8335 85.9824 21.6588 85.9824 19.7792C85.9824 17.8996 84.418 16.7249 82.7753 16.7249ZM82.8535 21.4238H80.7415V18.0562H82.8535C83.9486 18.0562 84.5744 18.996 84.5744 19.7009C84.4962 20.5623 83.8704 21.4238 82.8535 21.4238ZM91.8491 20.0141C90.754 20.0141 89.6589 20.484 89.2678 21.5021L90.5976 22.0503C90.9105 21.5021 91.3798 21.3455 91.9274 21.3455C92.7096 21.3455 93.4136 21.8154 93.4918 22.5985V22.6769C93.2572 22.5202 92.6314 22.2853 92.0056 22.2853C90.5976 22.2853 89.1896 23.0684 89.1896 24.4781C89.1896 25.8095 90.3629 26.6709 91.6145 26.6709C92.6314 26.6709 93.1007 26.201 93.4918 25.7312H93.57V26.5143H94.9781V22.7552C94.8216 21.0322 93.4918 20.0141 91.8491 20.0141ZM91.6927 25.4179C91.2234 25.4179 90.5194 25.1829 90.5194 24.5564C90.5194 23.7733 91.3798 23.5383 92.0838 23.5383C92.7096 23.5383 93.0225 23.695 93.4136 23.8516C93.2572 24.7914 92.4749 25.4179 91.6927 25.4179ZM99.9061 20.2491L98.2634 24.4781H98.1852L96.4643 20.2491H94.8998L97.4812 26.201L95.995 29.4903H97.4812L101.471 20.2491H99.9061ZM86.7647 26.5143H88.2509V16.7249H86.7647V26.5143Z" fill="#222222"/>
<path fill-rule="evenodd" clip-rule="evenodd" d="M14.7906 9.63276C14.6317 9.77365 14.4941 9.94091 14.3848 10.1304C14.1176 10.594 14.1176 11.3478 14.1176 12.8555V23.1446C14.1176 24.6522 14.1176 25.406 14.3848 25.8697C14.4939 26.0589 14.6313 26.226 14.79 26.3667L14.9709 26.1838C15.8021 25.3433 16.9639 24.1686 18.2867 22.8317C19.7597 21.343 21.4321 19.6531 23.0697 17.9996C21.5168 16.4315 19.9439 14.8422 18.5497 13.4331C17.2269 12.0962 16.0651 10.9215 15.2339 10.081L14.7906 9.63276ZM15.4571 26.7587C15.665 26.8315 15.8864 26.8704 16.1133 26.8709C16.6484 26.8721 17.3023 26.497 18.6101 25.747L18.6102 25.747L26.3484 21.3088C25.4781 20.431 24.5458 19.4901 23.5974 18.5325C21.9617 20.1842 20.2912 21.872 18.8198 23.3592C17.4971 24.696 16.3353 25.8707 15.5041 26.7112L15.4571 26.7587ZM27.0217 20.9227L27.5801 20.6024C28.8993 19.8458 29.5588 19.4676 29.8282 19.0025C30.1874 18.3825 30.1874 17.6176 29.8282 16.9975C29.5588 16.5325 28.8993 16.1542 27.5801 15.3977L27.0214 15.0772C26.1161 15.9902 25.1321 16.9831 24.1252 17.9996C25.1266 19.0107 26.1101 20.0033 27.0217 20.9227ZM26.3481 14.6911L18.6102 10.2531C17.3023 9.50303 16.6484 9.128 16.1133 9.12915C15.8867 9.12964 15.6656 9.16846 15.458 9.24102L15.7671 9.55365C16.5983 10.3941 17.7601 11.5688 19.0828 12.9056C20.4755 14.3132 22.0464 15.9004 23.5975 17.4667C24.5507 16.5043 25.4833 15.5632 26.3481 14.6911Z" fill="#222222"/>
</g>
<defs>
<clipPath id="clip0_121_558">
<rect width="114.353" height="36" fill="white" transform="translate(0.352905)"/>
</clipPath>
</defs>
</svg>
