<svg width="116" height="36" viewBox="0 0 116 36" fill="none" xmlns="http://www.w3.org/2000/svg">
<g clip-path="url(#clip0_121_565)">
<rect x="1.20587" y="0.5" width="113" height="35" rx="8.5" stroke="#222222"/>
<path d="M44.5473 10.7707C44.5473 11.287 44.4604 11.7382 44.2867 12.1242C44.113 12.5078 43.8669 12.801 43.5484 13.0036C43.2299 13.2063 42.8584 13.3076 42.4338 13.3076C42.0188 13.3076 41.6508 13.2063 41.33 13.0036C41.0091 12.7985 40.7594 12.5078 40.5808 12.1314C40.4047 11.7526 40.3142 11.3147 40.3094 10.8177V10.4377C40.3094 9.93107 40.3975 9.48351 40.5736 9.09507C40.7497 8.70663 40.9982 8.40987 41.3191 8.20479C41.6424 7.9973 42.0115 7.89355 42.4265 7.89355C42.8487 7.89355 43.2203 7.99609 43.5412 8.20117C43.8645 8.40384 44.113 8.69939 44.2867 9.08783C44.4604 9.47386 44.5473 9.92383 44.5473 10.4377V10.7707ZM43.856 10.4305C43.856 9.80561 43.7306 9.32669 43.4797 8.99374C43.2287 8.65838 42.8777 8.49069 42.4265 8.49069C41.9874 8.49069 41.6412 8.65838 41.3879 8.99374C41.1369 9.32669 41.0079 9.78992 41.0006 10.3834V10.7707C41.0006 11.3763 41.1273 11.8528 41.3806 12.2002C41.6364 12.5452 41.9874 12.7177 42.4338 12.7177C42.8825 12.7177 43.2299 12.5549 43.476 12.2291C43.7221 11.901 43.8488 11.4318 43.856 10.8213V10.4305Z" fill="#222222"/>
<path d="M48.5425 9.8623H47.2288V13.2352H46.5593V9.8623H45.2709V9.31945H48.5425V9.8623Z" fill="#222222"/>
<path d="M50.5618 11.5669H50.0732V13.2352H49.4001V9.31945H50.0732V10.977H50.5111L51.8285 9.31945H52.6391L51.0902 11.2013L52.7694 13.2352H51.9189L50.5618 11.5669Z" fill="#222222"/>
<path d="M56.8008 11.3208C56.8008 11.9167 56.6645 12.3968 56.3919 12.7611C56.1193 13.1255 55.7501 13.3076 55.2845 13.3076C54.8092 13.3076 54.4352 13.1568 54.1626 12.8552V14.7408H53.4931V9.31945H54.1047L54.1372 9.75373C54.4099 9.41596 54.7887 9.24707 55.2736 9.24707C55.7441 9.24707 56.1156 9.4244 56.3883 9.77907C56.6633 10.1337 56.8008 10.6271 56.8008 11.2592V11.3208ZM56.1313 11.2448C56.1313 10.8033 56.0372 10.4546 55.849 10.1989C55.6609 9.94313 55.4027 9.81526 55.0746 9.81526C54.6692 9.81526 54.3652 9.995 54.1626 10.3545V12.2255C54.3628 12.5826 54.6692 12.7611 55.0818 12.7611C55.4027 12.7611 55.6572 12.6345 55.8454 12.3811C56.036 12.1254 56.1313 11.7466 56.1313 11.2448Z" fill="#222222"/>
<path d="M57.6258 11.2412C57.6258 10.8575 57.7006 10.5125 57.8502 10.2061C58.0022 9.8997 58.2121 9.66326 58.4799 9.49678C58.7501 9.33031 59.0578 9.24707 59.4028 9.24707C59.936 9.24707 60.3666 9.43164 60.6948 9.80078C61.0253 10.1699 61.1906 10.6609 61.1906 11.2737V11.3208C61.1906 11.702 61.117 12.0446 60.9698 12.3486C60.8251 12.6502 60.6164 12.8854 60.3437 13.0543C60.0735 13.2232 59.7623 13.3076 59.41 13.3076C58.8792 13.3076 58.4486 13.123 58.118 12.7539C57.7899 12.3848 57.6258 11.8962 57.6258 11.2882V11.2412ZM58.299 11.3208C58.299 11.7551 58.3991 12.1037 58.5994 12.3667C58.802 12.6297 59.0722 12.7611 59.41 12.7611C59.7502 12.7611 60.0204 12.6284 60.2207 12.3631C60.4209 12.0952 60.5211 11.7213 60.5211 11.2412C60.5211 10.8117 60.4185 10.4643 60.2134 10.1989C60.0108 9.93107 59.7406 9.79716 59.4028 9.79716C59.0722 9.79716 58.8056 9.92865 58.603 10.1916C58.4003 10.4546 58.299 10.831 58.299 11.3208Z" fill="#222222"/>
<path d="M64.7117 9.31945H65.3813V13.2352H64.7117V10.3798L62.9059 13.2352H62.2363V9.31945H62.9059V12.1785L64.7117 9.31945ZM64.8927 7.89355C64.8927 8.18549 64.7926 8.42073 64.5923 8.59926C64.3945 8.77539 64.1339 8.86345 63.8106 8.86345C63.4873 8.86345 63.2255 8.77418 63.0253 8.59565C62.825 8.41711 62.7249 8.18308 62.7249 7.89355H63.2714C63.2714 8.06244 63.3172 8.19514 63.4089 8.29165C63.5006 8.38574 63.6345 8.43279 63.8106 8.43279C63.9795 8.43279 64.111 8.38574 64.2051 8.29165C64.3016 8.19755 64.3498 8.06486 64.3498 7.89355H64.8927Z" fill="#222222"/>
<path d="M68.1509 13.2352V9.31945H69.6781C70.1993 9.31945 70.5986 9.41113 70.876 9.5945C71.1559 9.77545 71.2958 10.042 71.2958 10.3943C71.2958 10.5753 71.2415 10.7393 71.133 10.8865C71.0244 11.0312 70.864 11.1422 70.6516 11.2194C70.8881 11.2749 71.0775 11.3835 71.2198 11.5452C71.3646 11.7068 71.437 11.8998 71.437 12.1242C71.437 12.4837 71.3043 12.7587 71.0389 12.9493C70.7759 13.1399 70.4031 13.2352 69.9206 13.2352H68.1509ZM68.8204 11.5162V12.696H69.9278C70.2077 12.696 70.4164 12.6441 70.5539 12.5404C70.6939 12.4366 70.7638 12.2907 70.7638 12.1025C70.7638 11.7116 70.4767 11.5162 69.9025 11.5162H68.8204ZM68.8204 10.9806H69.6854C70.3127 10.9806 70.6263 10.7972 70.6263 10.4305C70.6263 10.0638 70.3295 9.87437 69.736 9.8623H68.8204V10.9806Z" fill="#222222"/>
<path d="M46.0409 24.3674H42.5418L41.8097 26.4706H40.178L43.5903 17.4375H44.9986L48.417 26.4706H46.7791L46.0409 24.3674ZM42.9823 23.1018H45.6004L44.2913 19.3545L42.9823 23.1018Z" fill="#222222"/>
<path d="M54.8816 23.1824C54.8816 24.2206 54.6459 25.0498 54.1744 25.6702C53.7029 26.2865 53.07 26.5947 52.2759 26.5947C51.5397 26.5947 50.9503 26.3527 50.5078 25.8688V29.0515H49.0002V19.7578H50.3899L50.4519 20.4402C50.8945 19.9026 51.4963 19.6337 52.2573 19.6337C53.0762 19.6337 53.7173 19.9398 54.1806 20.5519C54.6479 21.1599 54.8816 22.0057 54.8816 23.0894V23.1824ZM53.3802 23.0521C53.3802 22.3821 53.2458 21.8506 52.977 21.4577C52.7123 21.0648 52.3318 20.8683 51.8354 20.8683C51.2192 20.8683 50.7766 21.1227 50.5078 21.6314V24.6094C50.7807 25.1305 51.2274 25.3911 51.8478 25.3911C52.3276 25.3911 52.7019 25.1987 52.9708 24.8141C53.2438 24.4253 53.3802 23.838 53.3802 23.0521Z" fill="#222222"/>
<path d="M62.0411 23.1824C62.0411 24.2206 61.8053 25.0498 61.3338 25.6702C60.8623 26.2865 60.2295 26.5947 59.4354 26.5947C58.6992 26.5947 58.1098 26.3527 57.6672 25.8688V29.0515H56.1597V19.7578H57.5494L57.6114 20.4402C58.054 19.9026 58.6557 19.6337 59.4168 19.6337C60.2357 19.6337 60.8768 19.9398 61.34 20.5519C61.8074 21.1599 62.0411 22.0057 62.0411 23.0894V23.1824ZM60.5397 23.0521C60.5397 22.3821 60.4053 21.8506 60.1364 21.4577C59.8717 21.0648 59.4912 20.8683 58.9949 20.8683C58.3786 20.8683 57.9361 21.1227 57.6672 21.6314V24.6094C57.9402 25.1305 58.3869 25.3911 59.0073 25.3911C59.4871 25.3911 59.8614 25.1987 60.1302 24.8141C60.4032 24.4253 60.5397 23.838 60.5397 23.0521Z" fill="#222222"/>
<path d="M70.3917 25.298C70.065 25.724 69.6121 26.0466 69.033 26.2658C68.454 26.485 67.7964 26.5947 67.0602 26.5947C66.3033 26.5947 65.6332 26.423 65.05 26.0797C64.4669 25.7364 64.016 25.2463 63.6976 24.6094C63.3832 23.9683 63.2199 23.2217 63.2074 22.3697V21.6624C63.2074 20.2975 63.5342 19.2325 64.1877 18.4674C64.8412 17.6981 65.7532 17.3134 66.9237 17.3134C67.9287 17.3134 68.727 17.5616 69.3184 18.0579C69.9099 18.5542 70.2656 19.2697 70.3855 20.2045H68.8469C68.6732 19.1167 68.0425 18.5728 66.9547 18.5728C66.2516 18.5728 65.7159 18.8272 65.3478 19.3359C64.9839 19.8405 64.7957 20.5829 64.7833 21.5632V22.258C64.7833 23.2341 64.988 23.9931 65.3975 24.5349C65.8111 25.0726 66.3839 25.3414 67.116 25.3414C67.9184 25.3414 68.4892 25.1595 68.8283 24.7955V23.0273H66.9671V21.8362H70.3917V25.298Z" fill="#222222"/>
<path d="M75.9816 26.4706C75.9154 26.3424 75.8575 26.1335 75.8079 25.844C75.3281 26.3444 74.7408 26.5947 74.0459 26.5947C73.3717 26.5947 72.8216 26.4023 72.3956 26.0177C71.9696 25.633 71.7566 25.1574 71.7566 24.5907C71.7566 23.8752 72.0213 23.3272 72.5507 22.9467C73.0843 22.562 73.8453 22.3697 74.8338 22.3697H75.7582V21.9292C75.7582 21.5818 75.661 21.3047 75.4666 21.0979C75.2722 20.8869 74.9765 20.7815 74.5795 20.7815C74.2362 20.7815 73.9549 20.8683 73.7357 21.042C73.5165 21.2116 73.4069 21.4288 73.4069 21.6935H71.8993C71.8993 21.3254 72.0213 20.9821 72.2654 20.6636C72.5094 20.341 72.8403 20.0887 73.258 19.9067C73.6799 19.7247 74.1493 19.6337 74.6663 19.6337C75.4522 19.6337 76.0788 19.8322 76.5461 20.2293C77.0135 20.6222 77.2534 21.1765 77.2658 21.892V24.9196C77.2658 25.5234 77.3506 26.0053 77.5202 26.3651V26.4706H75.9816ZM74.3251 25.3849C74.6229 25.3849 74.9021 25.3125 75.1626 25.1677C75.4273 25.023 75.6259 24.8286 75.7582 24.5845V23.3189H74.9455C74.3871 23.3189 73.9673 23.4161 73.6861 23.6105C73.4048 23.8049 73.2642 24.0799 73.2642 24.4356C73.2642 24.7252 73.3593 24.9568 73.5496 25.1305C73.744 25.3001 74.0025 25.3849 74.3251 25.3849Z" fill="#222222"/>
<path d="M80.4485 26.4706H78.9409V16.9412H80.4485V26.4706Z" fill="#222222"/>
<path d="M83.6994 26.4706H82.1918V16.9412H83.6994V26.4706Z" fill="#222222"/>
<path d="M88.3028 26.5947C87.3474 26.5947 86.5719 26.2948 85.9763 25.6951C85.3848 25.0912 85.0891 24.2888 85.0891 23.2879V23.1018C85.0891 22.4317 85.2173 21.8341 85.4738 21.3088C85.7343 20.7794 86.0983 20.3679 86.5657 20.0742C87.033 19.7805 87.5542 19.6337 88.1291 19.6337C89.0432 19.6337 89.7483 19.9253 90.2447 20.5085C90.7451 21.0917 90.9954 21.9168 90.9954 22.9839V23.5919H86.6091C86.6546 24.1461 86.8386 24.5845 87.1613 24.9072C87.488 25.2298 87.8975 25.3911 88.3897 25.3911C89.0804 25.3911 89.6429 25.1119 90.0772 24.5535L90.8899 25.329C90.621 25.7302 90.2612 26.0425 89.8104 26.2658C89.3637 26.485 88.8612 26.5947 88.3028 26.5947ZM88.1229 20.8435C87.7093 20.8435 87.3743 20.9883 87.1178 21.2778C86.8655 21.5673 86.7042 21.9706 86.6339 22.4876H89.5064V22.3759C89.4733 21.8713 89.3389 21.4908 89.1031 21.2344C88.8674 20.9738 88.5406 20.8435 88.1229 20.8435Z" fill="#222222"/>
<path d="M95.6856 21.1351C95.4871 21.102 95.2823 21.0855 95.0714 21.0855C94.3807 21.0855 93.9154 21.3502 93.6755 21.8796V26.4706H92.1679V19.7578H93.6073L93.6445 20.5085C94.0085 19.9253 94.5131 19.6337 95.1583 19.6337C95.3733 19.6337 95.5512 19.6627 95.6918 19.7206L95.6856 21.1351Z" fill="#222222"/>
<path d="M99.0978 24.3116L100.463 19.7578H102.07L99.4018 27.488C98.9924 28.6172 98.2975 29.1817 97.3173 29.1817C97.0981 29.1817 96.8561 29.1445 96.5914 29.0701V27.9037L96.8768 27.9223C97.2573 27.9223 97.5427 27.852 97.7329 27.7114C97.9273 27.5749 98.0804 27.3433 98.192 27.0165L98.4092 26.4396L96.0517 19.7578H97.6771L99.0978 24.3116Z" fill="#222222"/>
<path fill-rule="evenodd" clip-rule="evenodd" d="M19.3702 7.41187H28.6299C32.9923 7.41187 34.5883 9.00791 34.5883 13.3703V22.63C34.5883 26.9923 32.99 28.5884 28.6277 28.5884H19.3702C15.0078 28.5884 13.4118 26.9923 13.4118 22.63V13.3703C13.4118 9.00791 15.0078 7.41187 19.3702 7.41187ZM20.4756 10.953C20.4756 12.8968 22.0561 14.4772 23.9999 14.4772C25.9436 14.4772 27.5241 12.8968 27.5241 10.953H27.027C27.027 12.6226 25.6695 13.9801 23.9999 13.9801C22.3303 13.9801 20.9727 12.6226 20.9727 10.953H20.4756ZM18.1664 18.0045H17.6047V19.1213H16.3363V18.0045H15.7746V20.7731H16.3363V19.6496H17.6047V20.7731H18.1664V18.0045ZM20.1414 20.2805C20.5471 20.2805 20.77 20.0397 20.77 19.5894H20.7723V18.0045H21.334V19.5671C21.334 20.3607 20.8971 20.8155 20.1347 20.8155C19.3791 20.8155 18.9466 20.3674 18.9466 19.5894V18.0067H19.5083V19.5716C19.5083 20.033 19.7335 20.2805 20.1414 20.2805ZM26.6326 18.0045L27.2612 19.9082L27.8742 18.0045H28.456L27.493 20.7709H27.0249L26.3963 18.9541L25.7677 20.7709H25.3018L24.3366 18.0045H24.934L25.5448 19.9082L26.1734 18.0045H26.6326ZM30.4845 19.5805H29.4635V20.2671H30.9994V20.7709H28.9085V18.0067H30.9459V18.5105H29.4635V19.0767H30.4845V19.5805ZM32.2254 20.7686H31.6703V18.0045H32.2254V20.7686ZM22.19 20.7731L22.4419 20.1958H23.708L23.9576 20.7731H24.5461L23.3313 18.0067H22.8364L21.6171 20.7731H22.19ZM23.5007 19.6964H22.6514L23.0749 18.7067L23.5007 19.6964Z" fill="#222222"/>
</g>
<defs>
<clipPath id="clip0_121_565">
<rect width="114.353" height="36" fill="white" transform="translate(0.705872)"/>
</clipPath>
</defs>
</svg>
