<svg width="20" height="20" viewBox="0 0 20 20" fill="none" xmlns="http://www.w3.org/2000/svg">
<path fill-rule="evenodd" clip-rule="evenodd" d="M8.856 11.144C7.686 9.97399 6.804 8.66399 6.218 7.33499C6.094 7.05399 6.167 6.72499 6.384 6.50799L7.203 5.68999C7.874 5.01899 7.874 4.06999 7.288 3.48399L6.114 2.30999C5.333 1.52899 4.067 1.52899 3.286 2.30999L2.634 2.96199C1.893 3.70299 1.584 4.77199 1.784 5.83199C2.278 8.44499 3.796 11.306 6.245 13.755C8.694 16.204 11.555 17.722 14.168 18.216C15.228 18.416 16.297 18.107 17.038 17.366L17.689 16.715C18.47 15.934 18.47 14.668 17.689 13.887L16.516 12.714C15.93 12.128 14.98 12.128 14.395 12.714L13.492 13.618C13.275 13.835 12.946 13.908 12.665 13.784C11.336 13.197 10.026 12.314 8.856 11.144Z" stroke="#222222" stroke-width="1.5" stroke-linecap="round" stroke-linejoin="round"/>
</svg>
