<svg width="32" height="32" viewBox="0 0 32 32" fill="none" xmlns="http://www.w3.org/2000/svg">
<path d="M15.9896 0C7.24974 0 0.136485 7.11325 0.133273 15.8563C0.131667 18.6518 0.862261 21.3799 2.24959 23.7836L0 32L8.40584 29.7954C10.7213 31.0591 13.3289 31.7238 15.9831 31.7254H15.9896C24.7294 31.7254 31.8426 24.6122 31.8459 15.8691C31.8475 11.6333 30.2 7.64795 27.2054 4.65171C24.2124 1.65387 20.2318 0.0016057 15.9896 0ZM15.9896 29.0471H15.9847C13.6196 29.0471 11.3009 28.4113 9.27613 27.2102L8.79442 26.9244L3.80712 28.233L5.13824 23.3694L4.82513 22.87C3.50524 20.7713 2.80837 18.3467 2.80998 15.8563C2.81319 8.58889 8.72538 2.67831 15.9944 2.67831C19.5141 2.67991 22.8234 4.05279 25.3123 6.54323C27.8011 9.03367 29.1708 12.3462 29.1692 15.8675C29.1659 23.1349 23.2538 29.0471 15.9896 29.0471ZM23.2184 19.1753C22.8218 18.9778 20.8741 18.0192 20.5112 17.8859C20.1483 17.7542 19.8834 17.6868 19.6201 18.0834C19.3567 18.48 18.5972 19.3728 18.366 19.6361C18.1348 19.901 17.9036 19.9332 17.507 19.7357C17.1103 19.5366 15.8338 19.1191 14.3212 17.7687C13.1427 16.7186 12.3478 15.4211 12.1166 15.0245C11.8854 14.6279 12.0925 14.4144 12.29 14.2169C12.4683 14.0402 12.6866 13.7544 12.8841 13.5232C13.0816 13.292 13.1475 13.1266 13.2807 12.8617C13.4124 12.5983 13.3466 12.3655 13.247 12.168C13.1475 11.9689 12.3559 10.0196 12.0251 9.22635C11.7039 8.45401 11.3764 8.55838 11.1339 8.54554C10.9027 8.5343 10.6394 8.53109 10.3744 8.53109C10.1111 8.53109 9.68077 8.63064 9.31788 9.02725C8.95499 9.42386 7.93055 10.3825 7.93055 12.3318C7.93055 14.2827 9.34999 16.1662 9.5491 16.4311C9.7466 16.6945 12.343 20.6975 16.3171 22.414C17.2629 22.8218 17.9999 23.0659 18.5763 23.2489C19.5253 23.5508 20.3892 23.5075 21.0716 23.4063C21.8327 23.2923 23.4159 22.4477 23.7451 21.5228C24.0759 20.5979 24.0759 19.8047 23.9763 19.6393C23.88 19.4739 23.615 19.3744 23.2184 19.1753Z" fill="#222222"/>
</svg>
