<svg width="32" height="32" viewBox="0 0 32 32" fill="none" xmlns="http://www.w3.org/2000/svg">
<circle cx="16" cy="16" r="15.5" stroke="#222222"/>
<path d="M23.3274 12.136C23.4345 11.7808 23.3274 11.52 22.8195 11.52H21.1393C20.7122 11.52 20.515 11.7452 20.4078 11.9936C20.4078 11.9936 19.553 14.0697 18.3424 15.4177C17.9511 15.8077 17.7725 15.9322 17.559 15.9322C17.4518 15.9322 17.2919 15.8084 17.2919 15.4533V12.136C17.2919 11.7104 17.1739 11.52 16.8175 11.52H14.1767C13.9104 11.52 13.7497 11.7173 13.7497 11.9046C13.7497 12.3085 14.3545 12.4014 14.4174 13.5365V16.0027C14.4174 16.5435 14.3196 16.641 14.106 16.641C13.5361 16.641 12.1509 14.5564 11.3286 12.17C11.1671 11.7073 11.0056 11.52 10.5762 11.52H8.89596C8.41611 11.52 8.31982 11.7452 8.31982 11.9936C8.31982 12.437 8.88975 14.6369 10.9722 17.5464C12.3606 19.5335 14.3172 20.6107 16.0977 20.6107C17.1661 20.6107 17.2981 20.3716 17.2981 19.9591V18.4579C17.2981 17.9797 17.399 17.8838 17.7376 17.8838C17.9868 17.8838 18.4139 18.0076 19.4109 18.9663C20.5499 20.1015 20.7378 20.6114 21.3792 20.6114H23.0595C23.5393 20.6114 23.7793 20.3723 23.641 19.9003C23.4896 19.4298 22.9453 18.7473 22.224 17.9379C21.8327 17.4768 21.2449 16.98 21.0671 16.7316C20.8178 16.412 20.8893 16.2704 21.0671 15.9864C21.0663 15.9856 23.1138 13.111 23.3274 12.136Z" fill="#222222"/>
</svg>
