<svg width="557" height="246" viewBox="0 0 557 246" fill="none" xmlns="http://www.w3.org/2000/svg">
<path d="M557 77.7142L557 123C489.152 123 434 67.8483 434 -7.62939e-06L479.286 -9.59911e-06C479.286 42.86 514.14 77.7142 557 77.7142Z" fill="#EAE8E7"/>
<path d="M479.286 246L434 246C434 178.152 489.152 123 557 123L557 168.286C514.14 168.286 479.286 203.14 479.286 246Z" fill="#EAE8E7"/>
<path d="M230 77.7142L230 123C162.152 123 107 67.8483 107 -7.62939e-06L152.286 -9.59911e-06C152.286 42.86 187.14 77.7142 230 77.7142Z" fill="#EAE8E7"/>
<path d="M152.286 246L107 246C107 178.152 162.152 123 230 123L230 168.286C187.14 168.286 152.286 203.14 152.286 246Z" fill="#EAE8E7"/>
<path d="M447 77.7142L447 123C379.152 123 324 67.8483 324 -7.62939e-06L369.286 -9.59911e-06C369.286 42.86 404.14 77.7142 447 77.7142Z" fill="#EAE8E7"/>
<path d="M369.286 246L324 246C324 178.152 379.152 123 447 123L447 168.286C404.14 168.286 369.286 203.14 369.286 246Z" fill="#EAE8E7"/>
<path d="M123 77.7142L123 123C55.152 123 -2.41077e-06 67.8483 -5.37651e-06 -7.62939e-06L45.2861 -9.59911e-06C45.2861 42.86 80.1402 77.7142 123 77.7142Z" fill="#EAE8E7"/>
<path d="M45.2863 246L0.000183092 246C0.0001831 178.152 55.1522 123 123 123L123 168.286C80.1404 168.286 45.2863 203.14 45.2863 246Z" fill="#EAE8E7"/>
<path d="M340 77.7142L340 123C272.152 123 217 67.8483 217 -7.62939e-06L262.286 -9.59911e-06C262.286 42.86 297.14 77.7142 340 77.7142Z" fill="#EAE8E7"/>
<path d="M262.286 246L217 246C217 178.152 272.152 123 340 123L340 168.286C297.14 168.286 262.286 203.14 262.286 246Z" fill="#EAE8E7"/>
</svg>
