<svg width="126" height="32" viewBox="0 0 126 32" fill="none" xmlns="http://www.w3.org/2000/svg">
<path d="M52.3478 0.579102L42.1412 31.419H47.9673L49.1209 27.9681C49.2844 27.4705 49.5823 27.1702 50.2072 27.1702H59.5231C60.1481 27.1702 60.4459 27.4676 60.6095 27.9681L61.763 31.419H67.5891L57.3854 0.579102H52.3478ZM57.6833 21.7907H52.0529C51.4601 21.7907 51.1301 21.4256 51.3286 20.8279L54.2899 11.8651C54.5527 11.0701 55.2127 11.0701 55.4755 11.8651L58.4075 20.8279C58.6032 21.458 58.2761 21.7907 57.6833 21.7907Z" fill="#222222"/>
<path d="M86.1267 18.8375C86.1267 19.9004 85.3703 20.1006 84.8768 19.1378L75.4937 0.579102H68.3505V31.4161H73.9809V13.1606C73.9809 12.0977 74.7373 11.9004 75.2308 12.8632L84.9439 31.419H91.76V0.579102H86.1296V18.8375H86.1267Z" fill="#222222"/>
<path d="M28.8732 24.9442V0.579102H23.2428V31.416H41.3168V26.0395H29.9596C29.3346 26.0395 28.8732 25.5743 28.8732 24.9442Z" fill="#222222"/>
<path d="M17.0869 15.2512C19.029 13.8261 20.1504 11.7002 20.1504 9.07671C20.1504 4.0653 16.8883 0.579102 11.623 0.579102H0V31.416H12.2158C17.122 31.416 20.7753 27.6325 20.7753 22.4532C20.7753 19.4676 19.3911 16.8117 17.0869 15.2512ZM5.63042 6.45617C5.63042 5.95856 5.92538 5.65823 6.42184 5.65823H10.5687C12.6772 5.65823 14.1578 7.31889 14.1578 9.40943C14.1578 11.5324 12.6772 13.1606 10.5687 13.1606H6.42184C5.9283 13.1606 5.63042 12.7955 5.63042 12.3303V6.45617ZM10.668 26.2721H6.48608C5.99255 26.2721 5.63042 25.907 5.63042 25.4094V19.1349C5.63042 18.6049 5.99255 18.2398 6.48608 18.2398H10.668C13.1386 18.2398 14.6835 19.9652 14.6835 22.2236C14.6835 24.5143 13.1357 26.2721 10.668 26.2721Z" fill="#222222"/>
<path d="M120.187 16C120.187 21.6827 115.599 26.3084 109.962 26.3084C104.326 26.3084 99.7383 21.6857 99.7383 16C99.7383 10.3143 104.326 5.69157 109.962 5.69157V0C101.213 0 94.0933 7.17851 94.0933 16C94.0933 24.8215 101.213 32 109.962 32C118.712 32 125.832 24.8215 125.832 16H120.187Z" fill="#222222"/>
</svg>
