<svg width="343" height="246" viewBox="0 0 343 246" fill="none" xmlns="http://www.w3.org/2000/svg">
<path d="M343 77.7141L343 123C275.152 123 220 67.8482 220 -3.05176e-05L265.286 -3.24873e-05C265.286 42.86 300.14 77.7141 343 77.7141Z" fill="#CBFA92"/>
<path d="M265.286 246L220 246C220 178.152 275.152 123 343 123L343 168.286C300.14 168.286 265.286 203.14 265.286 246Z" fill="#CBFA92"/>
<path d="M236 77.7141L236 123C168.152 123 113 67.8482 113 -3.05176e-05L158.286 -3.24873e-05C158.286 42.86 193.14 77.7141 236 77.7141Z" fill="#EAE8E7"/>
<path d="M158.286 246L113 246C113 178.152 168.152 123 236 123L236 168.286C193.14 168.286 158.286 203.14 158.286 246Z" fill="#EAE8E7"/>
<path d="M123 77.7141L123 123C55.152 123 -2.41077e-06 67.8482 -5.37651e-06 -3.05176e-05L45.2861 -3.24873e-05C45.2861 42.86 80.1402 77.7141 123 77.7141Z" fill="#EAE8E7"/>
<path d="M45.2863 246L0.000183092 246C0.0001831 178.152 55.1522 123 123 123L123 168.286C80.1404 168.286 45.2863 203.14 45.2863 246Z" fill="#EAE8E7"/>
</svg>
